<?xml version="1.0" encoding="UTF-8" standalone="no"?><!DOCTYPE svg PUBLIC "-//W3C//DTD SVG 1.1//EN" "http://www.w3.org/Graphics/SVG/1.1/DTD/svg11.dtd"><svg width="100%" height="100%" viewBox="0 0 543 480" version="1.1" xmlns="http://www.w3.org/2000/svg" xmlns:xlink="http://www.w3.org/1999/xlink" xml:space="preserve" xmlns:serif="http://www.serif.com/" style="fill-rule:evenodd;clip-rule:evenodd;stroke-linejoin:round;stroke-miterlimit:1.41421;"><g id="Plan-de-travail1" serif:id="Plan de travail1"><rect x="0.001" y="0" width="542.225" height="479.138" style="fill:none;"/><g><path d="M522.775,186.259l-18.939,0l22.298,35.89l-23.82,39.096l18.324,0l22.289,-39.096l-20.152,-35.89Zm-2.492,4.257l17.753,31.617l-19.871,34.855l-8.274,0l19.878,-32.623l1.362,-2.238l-1.381,-2.224l-18.259,-29.387l8.792,0Z" style="fill:#e95d24;fill-rule:nonzero;"/><path d="M45.149,211.055c0,-9.32 -5.654,-14.824 -12.987,-14.824c-7.337,0 -13.14,5.349 -13.14,14.824c0,9.626 5.803,15.13 13.14,15.13c7.184,0 12.987,-5.504 12.987,-15.13m-11.153,71.664c12.072,0 20.323,-5.654 20.323,-12.072c0,-5.804 -4.74,-7.488 -13.295,-7.488l-10.24,0c-4.125,0 -7.332,-0.304 -10.233,-1.068c-3.977,3.056 -5.81,6.418 -5.81,9.935c0,6.722 7.332,10.693 19.255,10.693m-23.225,-24.14l0,-0.614c-3.821,-2.443 -6.729,-6.419 -6.729,-12.531c0,-5.804 3.977,-10.85 8.253,-13.905l0,-0.61c-5.04,-3.821 -9.78,-11.003 -9.78,-19.864c0,-17.266 13.91,-26.896 29.647,-26.896c4.128,0 7.947,0.763 11,1.834l26.896,0l0,12.99l-13.756,0c2.448,2.902 4.282,7.487 4.282,12.681c0,16.659 -12.533,25.518 -28.422,25.518c-3.21,0 -6.877,-0.609 -10.238,-1.982c-2.293,1.982 -3.667,3.821 -3.667,7.182c0,4.275 3.057,6.872 12.222,6.872l13.297,0c18.03,0 27.506,5.505 27.506,18.49c0,14.825 -15.588,26.438 -40.038,26.438c-17.876,0 -31.171,-6.419 -31.171,-19.559c0,-6.264 3.82,-11.768 10.698,-16.044" style="fill:#e95d24;fill-rule:nonzero;"/><path d="M108.801,216.859c0,-11.918 -5.039,-19.1 -15.278,-19.1c-8.861,0 -16.503,6.574 -18.032,19.1l33.31,0Zm-15.738,-32.7c20.323,0 31.023,14.669 31.023,35.607c0,3.361 -0.306,6.418 -0.765,8.251l-47.674,0c1.527,13.601 10.084,21.237 22.155,21.237c6.42,0 11.919,-1.983 17.417,-5.498l5.965,11.003c-7.183,4.734 -16.2,8.097 -25.674,8.097c-20.782,0 -36.98,-14.516 -36.98,-39.268c0,-24.45 16.961,-39.429 34.533,-39.429" style="fill:#e95d24;fill-rule:nonzero;"/><path d="M123.139,185.992l14.515,0l1.223,10.09l0.614,0c6.723,-6.573 14.36,-11.923 24.599,-11.923c16.048,0 23.076,10.848 23.076,29.798l0,47.066l-17.572,0l0,-44.773c0,-12.377 -3.516,-16.962 -11.767,-16.962c-6.574,0 -10.848,3.212 -17.116,9.32l0,52.415l-17.572,0l0,-75.031Z" style="fill:#e95d24;fill-rule:nonzero;"/><path d="M236.312,216.859c0,-11.918 -5.046,-19.1 -15.279,-19.1c-8.866,0 -16.507,6.574 -18.036,19.1l33.315,0Zm-15.738,-32.7c20.323,0 31.017,14.669 31.017,35.607c0,3.361 -0.305,6.418 -0.765,8.251l-47.673,0c1.527,13.601 10.083,21.237 22.156,21.237c6.418,0 11.918,-1.983 17.42,-5.498l5.959,11.003c-7.182,4.734 -16.197,8.097 -25.672,8.097c-20.778,0 -36.975,-14.516 -36.975,-39.268c0,-24.45 16.956,-39.429 34.533,-39.429" style="fill:#e95d24;fill-rule:nonzero;"/><path d="M250.881,185.992l14.514,0l1.224,13.296l0.609,0c5.35,-9.779 13.297,-15.129 21.243,-15.129c3.816,0 6.263,0.46 8.556,1.529l-3.057,15.284c-2.597,-0.765 -4.586,-1.225 -7.793,-1.225c-5.957,0 -13.14,4.126 -17.724,15.434l0,45.842l-17.572,0l0,-75.031Z" style="fill:#e95d24;fill-rule:nonzero;"/><path d="M296.081,185.992l17.571,0l0,75.031l-17.571,0l0,-75.031Zm-1.988,-23.07c0,-5.959 4.586,-10.085 10.855,-10.085c6.262,0 10.847,4.126 10.847,10.085c0,5.803 -4.585,9.928 -10.847,9.928c-6.269,0 -10.855,-4.125 -10.855,-9.928" style="fill:#e95d24;fill-rule:nonzero;"/><path d="M388.87,211.032c3.414,0 6.007,1.482 7.714,3.19l-3.486,3.93c-1.186,-1.038 -2.224,-1.631 -4.154,-1.631c-3.262,0 -5.711,2.594 -5.711,6.973c0,4.521 2.004,7.042 6.305,7.042c0.668,0 1.409,-0.147 1.854,-0.445l0,-3.337l-3.558,0l0,-5.192l9.195,0l0,11.499c-1.781,1.483 -4.894,2.966 -8.308,2.966c-6.6,0 -12.013,-4.081 -12.013,-12.313c0,-8.083 5.56,-12.682 12.162,-12.682" style="fill:#e95d24;fill-rule:nonzero;"/><path d="M409.934,222.453l2.3,0c2.52,0 3.857,-1.111 3.857,-3.187c0,-2.079 -1.337,-2.745 -3.857,-2.745l-2.3,0l0,5.932Zm6.601,13.129l-4.154,-8.085l-2.447,0l0,8.085l-6.379,0l0,-24.105l9.124,0c5.192,0 9.64,1.78 9.64,7.789c0,3.447 -1.556,5.711 -3.893,6.969l5.229,9.347l-7.12,0Z" style="fill:#e95d24;fill-rule:nonzero;"/><path d="M443.605,223.417c0,-4.376 -1.78,-6.895 -4.672,-6.895c-2.892,0 -4.675,2.519 -4.675,6.895c0,4.38 1.783,7.12 4.675,7.12c2.892,0 4.672,-2.74 4.672,-7.12m-15.872,0c0,-7.933 4.525,-12.385 11.2,-12.385c6.674,0 11.197,4.486 11.197,12.385c0,7.936 -4.523,12.61 -11.197,12.61c-6.675,0 -11.2,-4.674 -11.2,-12.61" style="fill:#e95d24;fill-rule:nonzero;"/><path d="M456.14,211.476l6.378,0l0,13.203c0,4.302 1.112,5.857 3.633,5.857c2.521,0 3.707,-1.555 3.707,-5.857l0,-13.203l6.157,0l0,12.459c0,8.236 -3.115,12.092 -9.864,12.092c-6.749,0 -10.011,-3.856 -10.011,-12.092l0,-12.459Z" style="fill:#e95d24;fill-rule:nonzero;"/><path d="M492.109,222.898c2.522,0 3.709,-1.258 3.709,-3.411c0,-2.149 -1.337,-2.966 -3.709,-2.966l-2.67,0l0,6.377l2.67,0Zm-9.049,-11.422l9.347,0c5.191,0 9.641,1.928 9.641,8.011c0,5.896 -4.598,8.455 -9.641,8.455l-2.968,0l0,7.64l-6.379,0l0,-24.106Z" style="fill:#e95d24;fill-rule:nonzero;"/><path d="M344.396,206.315l11.386,-20.279l18.939,0l-3.682,5.927l-17.973,28.927l23.739,40.078l-0.594,0l0.031,0.053l-18.318,0l-0.005,0l-0.133,-0.232l-14.518,-24.513l-8.105,-13.685l9.233,-16.276Z" style="fill:#e95d24;fill-rule:nonzero;"/><path d="M332.826,218.645l0.448,-0.8l1.569,-2.811l7.148,-12.796l-0.827,-1.402c-0.103,-0.197 -0.212,-0.398 -0.313,-0.593l-8.401,-14.207l-0.016,0l-18.921,0l-0.002,0l0.044,0.071l19.271,32.538Z" style="fill:#e95d24;fill-rule:nonzero;"/><path d="M332.75,226.873l-20.807,34.148l15.817,0l13.263,-21.164l-7.973,-13.476l-0.3,0.492Z" style="fill:#e95d24;fill-rule:nonzero;"/><path d="M291.001,319.299l4.747,-9.249l-5.994,-9.656l-4.625,0.174l6.381,9.641l-5.289,9.267l4.78,-0.177Z" style="fill:#595857;fill-rule:nonzero;"/><path d="M299.039,318.999l4.747,-9.25l-5.994,-9.655l-4.625,0.172l6.381,9.642l-5.289,9.268l4.78,-0.177Zm-0.67,-1.051l-2.217,0.082l4.329,-7.588l0.328,-0.576l-0.365,-0.551l-5.323,-8.047l2.088,-0.077l5.343,8.608l-4.183,8.149Z" style="fill:#595857;fill-rule:nonzero;"/><path d="M324.904,310.298l3.482,-0.129l-0.141,-2.203c-0.124,-1.798 -0.245,-3.479 -0.318,-5.395l-0.115,0.005c-0.686,1.885 -1.26,3.651 -2.005,5.481l-0.903,2.241Zm0.803,-11.131l5.573,-0.209l2.505,18.798l-4.876,0.181l-0.277,-4.291l-5.195,0.194l-1.784,4.368l-5.108,0.193l9.162,-19.234Z" style="fill:#595857;fill-rule:nonzero;"/><path d="M336.423,309.983c-0.251,-6.733 4.155,-11.722 9.728,-11.931c2.206,-0.081 4.103,0.952 5.28,2.884l-3.043,2.556c-0.736,-1.018 -1.45,-1.457 -2.32,-1.423c-2.728,0.101 -5.047,3.385 -4.895,7.446c0.102,2.73 1.206,4.257 3.758,4.163c0.987,-0.038 2.011,-0.658 2.854,-1.444l2.025,2.888c-1.007,1.025 -3.045,2.497 -5.715,2.597c-4.412,0.165 -7.48,-2.627 -7.672,-7.736" style="fill:#595857;fill-rule:nonzero;"/><path d="M351.192,309.432c-0.251,-6.734 4.155,-11.723 9.728,-11.931c2.206,-0.082 4.104,0.951 5.28,2.883l-3.043,2.556c-0.736,-1.019 -1.45,-1.457 -2.32,-1.424c-2.729,0.103 -5.047,3.386 -4.895,7.448c0.102,2.729 1.206,4.256 3.758,4.162c0.989,-0.037 2.011,-0.657 2.854,-1.444l2.025,2.889c-1.007,1.024 -3.045,2.497 -5.715,2.596c-4.412,0.165 -7.48,-2.626 -7.672,-7.735" style="fill:#595857;fill-rule:nonzero;"/><path d="M371.346,297.461l11.493,-0.428l-0.611,3.916l-6.907,0.259l-0.515,3.331l5.862,-0.219l-0.608,3.917l-5.862,0.219l-0.668,3.919l7.14,-0.267l-0.61,3.918l-11.782,0.441l3.068,-19.006Z" style="fill:#595857;fill-rule:nonzero;"/><path d="M387.913,296.842l4.643,-0.174l-2.459,15.088l6.85,-0.257l-0.611,3.92l-11.491,0.428l3.068,-19.005Z" style="fill:#595857;fill-rule:nonzero;"/><path d="M403.84,296.247l11.493,-0.429l-0.609,3.917l-6.908,0.258l-0.515,3.332l5.863,-0.219l-0.609,3.916l-5.862,0.219l-0.668,3.92l7.139,-0.267l-0.609,3.918l-11.783,0.44l3.068,-19.005Z" style="fill:#595857;fill-rule:nonzero;"/><path d="M425.319,304.163c2.495,-0.093 3.668,-1.359 3.602,-3.158c-0.052,-1.394 -1.063,-1.994 -2.803,-1.929l-1.683,0.063l-0.799,5.087l1.683,-0.063Zm-4.911,-8.536l6.211,-0.231c3.772,-0.141 6.725,1.083 6.862,4.741c0.132,3.511 -1.704,5.702 -4.308,6.816l3.086,7.122l-4.876,0.183l-2.42,-6.42l-1.946,0.073l-1.033,6.549l-4.643,0.172l3.067,-19.005Z" style="fill:#595857;fill-rule:nonzero;"/><path d="M441.511,305.94l3.482,-0.129l-0.141,-2.204c-0.124,-1.798 -0.245,-3.478 -0.318,-5.394l-0.115,0.005c-0.685,1.885 -1.259,3.65 -2.005,5.48l-0.903,2.242Zm0.803,-11.131l5.573,-0.209l2.505,18.796l-4.876,0.183l-0.277,-4.291l-5.195,0.194l-1.784,4.368l-5.108,0.193l9.162,-19.234Z" style="fill:#595857;fill-rule:nonzero;"/><path d="M457.167,298.149l-4.759,0.177l0.609,-3.917l14.163,-0.529l-0.61,3.917l-4.758,0.177l-2.401,15.086l-4.644,0.174l2.4,-15.085Z" style="fill:#595857;fill-rule:nonzero;"/><path d="M471.153,293.731l11.493,-0.43l-0.609,3.918l-6.908,0.258l-0.515,3.332l5.863,-0.22l-0.609,3.918l-5.862,0.219l-0.668,3.919l7.139,-0.267l-0.61,3.918l-11.782,0.441l3.068,-19.006Z" style="fill:#595857;fill-rule:nonzero;"/><path d="M83.917,319.42c-0.252,-6.733 4.154,-11.722 9.725,-11.93c2.206,-0.083 4.106,0.953 5.282,2.882l-3.043,2.557c-0.735,-1.019 -1.45,-1.458 -2.32,-1.424c-2.729,0.101 -5.047,3.385 -4.895,7.446c0.102,2.73 1.205,4.258 3.759,4.163c0.987,-0.036 2.01,-0.658 2.852,-1.444l2.027,2.888c-1.008,1.026 -3.045,2.498 -5.716,2.598c-4.411,0.165 -7.48,-2.627 -7.671,-7.736" style="fill:#595857;fill-rule:nonzero;"/><path d="M110.868,315.159c-0.101,-2.728 -1.205,-4.257 -2.947,-4.191c-2.147,0.08 -4.65,3.079 -4.487,7.432c0.101,2.728 1.205,4.258 2.947,4.192c2.147,-0.08 4.65,-3.08 4.487,-7.433m-12.183,3.709c-0.262,-7.023 4.328,-11.728 9.319,-11.915c4.354,-0.163 7.423,2.63 7.613,7.736c0.263,7.025 -4.327,11.73 -9.319,11.917c-4.354,0.163 -7.423,-2.63 -7.613,-7.738" style="fill:#595857;fill-rule:nonzero;"/><path d="M121.623,306.793l4.644,-0.173l-2.459,15.087l6.849,-0.255l-0.609,3.918l-11.493,0.429l3.068,-19.006Z" style="fill:#595857;fill-rule:nonzero;"/><path d="M137.552,306.198l4.643,-0.173l-2.459,15.087l6.85,-0.256l-0.609,3.918l-11.493,0.43l3.068,-19.006Z" style="fill:#595857;fill-rule:nonzero;"/><path d="M155.809,316.617l3.484,-0.13l-0.14,-2.203c-0.126,-1.798 -0.247,-3.478 -0.319,-5.393l-0.115,0.004c-0.687,1.886 -1.259,3.65 -2.005,5.48l-0.905,2.242Zm0.806,-11.131l5.572,-0.208l2.504,18.796l-4.875,0.183l-0.277,-4.291l-5.195,0.194l-1.784,4.368l-5.106,0.191l9.161,-19.233Z" style="fill:#595857;fill-rule:nonzero;"/><path d="M175.496,312.337c2.264,-0.084 3.099,-1.047 3.046,-2.497c-0.04,-1.045 -0.874,-1.596 -2.616,-1.531l-1.335,0.05l-0.663,4.036l1.568,-0.058Zm-0.696,7.814c2.321,-0.087 3.446,-1.118 3.387,-2.685c-0.052,-1.393 -0.89,-2.059 -2.632,-1.993l-2.148,0.081l-0.756,4.677l2.149,-0.08Zm-4.288,-15.185l6.036,-0.226c3.831,-0.142 6.607,1.033 6.722,4.108c0.077,2.032 -1.306,3.943 -3.887,4.856l-0.054,0.116c2.168,0.441 3.256,1.564 3.321,3.305c0.169,4.527 -3.655,6.415 -8.067,6.58l-7.139,0.267l3.068,-19.006Z" style="fill:#595857;fill-rule:nonzero;"/><path d="M198.985,311.866c-0.102,-2.729 -1.207,-4.257 -2.947,-4.191c-2.149,0.079 -4.652,3.078 -4.489,7.432c0.103,2.728 1.205,4.257 2.947,4.192c2.147,-0.08 4.652,-3.08 4.489,-7.433m-12.185,3.709c-0.262,-7.023 4.329,-11.728 9.32,-11.915c4.353,-0.163 7.423,2.629 7.614,7.735c0.263,7.024 -4.328,11.731 -9.319,11.918c-4.354,0.162 -7.425,-2.63 -7.615,-7.738" style="fill:#595857;fill-rule:nonzero;"/><path d="M214.649,312.036c2.496,-0.093 3.668,-1.358 3.602,-3.158c-0.052,-1.394 -1.063,-1.995 -2.804,-1.929l-1.683,0.063l-0.798,5.086l1.683,-0.062Zm-4.911,-8.536l6.211,-0.231c3.772,-0.141 6.725,1.083 6.862,4.742c0.131,3.511 -1.705,5.7 -4.308,6.816l3.084,7.121l-4.874,0.183l-2.422,-6.421l-1.944,0.074l-1.033,6.548l-4.643,0.174l3.067,-19.006Z" style="fill:#595857;fill-rule:nonzero;"/><path d="M230.84,313.813l3.482,-0.13l-0.14,-2.203c-0.126,-1.798 -0.245,-3.479 -0.318,-5.394l-0.115,0.005c-0.686,1.885 -1.26,3.65 -2.005,5.48l-0.904,2.242Zm0.804,-11.131l5.573,-0.209l2.504,18.796l-4.876,0.184l-0.276,-4.292l-5.195,0.194l-1.784,4.368l-5.107,0.192l9.161,-19.233Z" style="fill:#595857;fill-rule:nonzero;"/><path d="M246.5,306.021l-4.761,0.178l0.611,-3.918l14.162,-0.528l-0.611,3.917l-4.758,0.177l-2.4,15.086l-4.643,0.174l2.4,-15.086Z" style="fill:#595857;fill-rule:nonzero;"/><path d="M260.483,301.604l11.494,-0.43l-0.609,3.917l-6.908,0.259l-0.514,3.332l5.862,-0.22l-0.609,3.917l-5.863,0.22l-0.667,3.919l7.139,-0.268l-0.609,3.919l-11.784,0.439l3.068,-19.004Z" style="fill:#595857;fill-rule:nonzero;"/></g></g></svg>
